<mxfile host="app.diagrams.net" modified="2022-04-16T10:39:04.491Z" agent="5.0 (Windows NT 10.0; Win64; x64) AppleWebKit/537.36 (KHTML, like Gecko) Chrome/100.0.4896.88 Safari/537.36" etag="MYfA4_izoNkJ2JC2r8MF" version="17.4.3" type="github">
  <diagram id="BctuJUikym2BQ5avwD0K" name="Page-1">
    <mxGraphModel dx="2153" dy="1827" grid="1" gridSize="10" guides="1" tooltips="1" connect="1" arrows="1" fold="1" page="1" pageScale="1" pageWidth="850" pageHeight="1100" math="0" shadow="0">
      <root>
        <mxCell id="0" />
        <mxCell id="1" parent="0" />
        <mxCell id="EMOaW1B3szaLbLaair1D-2" style="edgeStyle=orthogonalEdgeStyle;rounded=0;orthogonalLoop=1;jettySize=auto;html=1;" edge="1" parent="1" source="EMOaW1B3szaLbLaair1D-1">
          <mxGeometry relative="1" as="geometry">
            <mxPoint x="528" y="349" as="targetPoint" />
          </mxGeometry>
        </mxCell>
        <mxCell id="EMOaW1B3szaLbLaair1D-1" value="" style="rounded=0;whiteSpace=wrap;html=1;" vertex="1" parent="1">
          <mxGeometry x="303" y="299" width="140" height="100" as="geometry" />
        </mxCell>
        <mxCell id="EMOaW1B3szaLbLaair1D-3" value="Đồ Án Vip" style="text;strokeColor=none;fillColor=none;html=1;fontSize=24;fontStyle=1;verticalAlign=middle;align=center;" vertex="1" parent="1">
          <mxGeometry x="323" y="329" width="100" height="40" as="geometry" />
        </mxCell>
        <mxCell id="EMOaW1B3szaLbLaair1D-12" value="" style="edgeStyle=orthogonalEdgeStyle;rounded=0;orthogonalLoop=1;jettySize=auto;html=1;exitX=0.25;exitY=1;exitDx=0;exitDy=0;" edge="1" parent="1" source="EMOaW1B3szaLbLaair1D-4" target="EMOaW1B3szaLbLaair1D-11">
          <mxGeometry relative="1" as="geometry">
            <Array as="points">
              <mxPoint x="555" y="479" />
              <mxPoint x="555" y="479" />
            </Array>
          </mxGeometry>
        </mxCell>
        <mxCell id="EMOaW1B3szaLbLaair1D-13" value="" style="edgeStyle=orthogonalEdgeStyle;rounded=0;orthogonalLoop=1;jettySize=auto;html=1;" edge="1" parent="1" source="EMOaW1B3szaLbLaair1D-4" target="EMOaW1B3szaLbLaair1D-5">
          <mxGeometry relative="1" as="geometry" />
        </mxCell>
        <mxCell id="EMOaW1B3szaLbLaair1D-45" value="" style="edgeStyle=orthogonalEdgeStyle;rounded=0;orthogonalLoop=1;jettySize=auto;html=1;" edge="1" parent="1" source="EMOaW1B3szaLbLaair1D-4" target="EMOaW1B3szaLbLaair1D-44">
          <mxGeometry relative="1" as="geometry" />
        </mxCell>
        <mxCell id="EMOaW1B3szaLbLaair1D-4" value="Website" style="rounded=1;whiteSpace=wrap;html=1;absoluteArcSize=1;arcSize=14;strokeWidth=2;fillColor=#fff2cc;strokeColor=#d6b656;" vertex="1" parent="1">
          <mxGeometry x="528" y="299" width="110" height="100" as="geometry" />
        </mxCell>
        <mxCell id="EMOaW1B3szaLbLaair1D-5" value="Trang giới thiệu" style="rounded=1;whiteSpace=wrap;html=1;absoluteArcSize=1;arcSize=14;strokeWidth=2;fillColor=#f8cecc;strokeColor=#b85450;" vertex="1" parent="1">
          <mxGeometry x="680" y="130" width="100" height="90" as="geometry" />
        </mxCell>
        <mxCell id="EMOaW1B3szaLbLaair1D-18" value="" style="edgeStyle=orthogonalEdgeStyle;rounded=0;orthogonalLoop=1;jettySize=auto;html=1;" edge="1" parent="1" source="EMOaW1B3szaLbLaair1D-11" target="EMOaW1B3szaLbLaair1D-17">
          <mxGeometry relative="1" as="geometry" />
        </mxCell>
        <mxCell id="EMOaW1B3szaLbLaair1D-26" value="" style="edgeStyle=orthogonalEdgeStyle;rounded=0;orthogonalLoop=1;jettySize=auto;html=1;" edge="1" parent="1" target="EMOaW1B3szaLbLaair1D-25">
          <mxGeometry relative="1" as="geometry">
            <mxPoint x="550" y="610" as="sourcePoint" />
            <Array as="points">
              <mxPoint x="550" y="570" />
              <mxPoint x="301" y="570" />
            </Array>
          </mxGeometry>
        </mxCell>
        <mxCell id="EMOaW1B3szaLbLaair1D-41" value="" style="edgeStyle=orthogonalEdgeStyle;rounded=0;orthogonalLoop=1;jettySize=auto;html=1;" edge="1" parent="1" source="EMOaW1B3szaLbLaair1D-11" target="EMOaW1B3szaLbLaair1D-40">
          <mxGeometry relative="1" as="geometry" />
        </mxCell>
        <mxCell id="EMOaW1B3szaLbLaair1D-11" value="Trang học tập (phần này quan trọng hơn)" style="rounded=1;whiteSpace=wrap;html=1;absoluteArcSize=1;arcSize=14;strokeWidth=2;fillColor=#fff2cc;strokeColor=#d6b656;" vertex="1" parent="1">
          <mxGeometry x="503" y="500" width="110" height="109" as="geometry" />
        </mxCell>
        <mxCell id="EMOaW1B3szaLbLaair1D-20" value="" style="edgeStyle=orthogonalEdgeStyle;rounded=0;orthogonalLoop=1;jettySize=auto;html=1;" edge="1" parent="1" source="EMOaW1B3szaLbLaair1D-17" target="EMOaW1B3szaLbLaair1D-19">
          <mxGeometry relative="1" as="geometry" />
        </mxCell>
        <mxCell id="EMOaW1B3szaLbLaair1D-22" value="" style="edgeStyle=orthogonalEdgeStyle;rounded=0;orthogonalLoop=1;jettySize=auto;html=1;" edge="1" parent="1" source="EMOaW1B3szaLbLaair1D-17" target="EMOaW1B3szaLbLaair1D-21">
          <mxGeometry relative="1" as="geometry" />
        </mxCell>
        <mxCell id="EMOaW1B3szaLbLaair1D-24" value="" style="edgeStyle=orthogonalEdgeStyle;rounded=0;orthogonalLoop=1;jettySize=auto;html=1;" edge="1" parent="1" source="EMOaW1B3szaLbLaair1D-17" target="EMOaW1B3szaLbLaair1D-23">
          <mxGeometry relative="1" as="geometry" />
        </mxCell>
        <mxCell id="EMOaW1B3szaLbLaair1D-17" value="Người dùng" style="whiteSpace=wrap;html=1;fillColor=#fff2cc;strokeColor=#d6b656;rounded=1;arcSize=14;strokeWidth=2;" vertex="1" parent="1">
          <mxGeometry x="793" y="469" width="120" height="60" as="geometry" />
        </mxCell>
        <mxCell id="EMOaW1B3szaLbLaair1D-19" value="Đăng nhập, đăng kí" style="whiteSpace=wrap;html=1;fillColor=#fff2cc;strokeColor=#d6b656;rounded=1;arcSize=14;strokeWidth=2;" vertex="1" parent="1">
          <mxGeometry x="793" y="329" width="120" height="60" as="geometry" />
        </mxCell>
        <mxCell id="EMOaW1B3szaLbLaair1D-21" value="Profile của user" style="whiteSpace=wrap;html=1;fillColor=#fff2cc;strokeColor=#d6b656;rounded=1;arcSize=14;strokeWidth=2;" vertex="1" parent="1">
          <mxGeometry x="975" y="469" width="120" height="60" as="geometry" />
        </mxCell>
        <mxCell id="EMOaW1B3szaLbLaair1D-23" value="Điểm của user" style="whiteSpace=wrap;html=1;fillColor=#fff2cc;strokeColor=#d6b656;rounded=1;arcSize=14;strokeWidth=2;" vertex="1" parent="1">
          <mxGeometry x="793" y="609" width="120" height="60" as="geometry" />
        </mxCell>
        <mxCell id="EMOaW1B3szaLbLaair1D-28" value="" style="edgeStyle=orthogonalEdgeStyle;rounded=0;orthogonalLoop=1;jettySize=auto;html=1;" edge="1" parent="1" source="EMOaW1B3szaLbLaair1D-25" target="EMOaW1B3szaLbLaair1D-27">
          <mxGeometry relative="1" as="geometry">
            <Array as="points">
              <mxPoint x="213" y="750" />
              <mxPoint x="213" y="750" />
            </Array>
          </mxGeometry>
        </mxCell>
        <mxCell id="EMOaW1B3szaLbLaair1D-37" value="" style="edgeStyle=orthogonalEdgeStyle;rounded=0;orthogonalLoop=1;jettySize=auto;html=1;" edge="1" parent="1" source="EMOaW1B3szaLbLaair1D-25" target="EMOaW1B3szaLbLaair1D-36">
          <mxGeometry relative="1" as="geometry" />
        </mxCell>
        <mxCell id="EMOaW1B3szaLbLaair1D-25" value="Game&lt;br&gt;(phần đặc biệt, thể hiện đẳng cấp với các website học hóa rẻ rách khác)" style="rounded=1;whiteSpace=wrap;html=1;absoluteArcSize=1;arcSize=14;strokeWidth=2;fillColor=#fff2cc;strokeColor=#d6b656;" vertex="1" parent="1">
          <mxGeometry x="246" y="699" width="110" height="100" as="geometry" />
        </mxCell>
        <mxCell id="EMOaW1B3szaLbLaair1D-30" value="" style="edgeStyle=orthogonalEdgeStyle;rounded=0;orthogonalLoop=1;jettySize=auto;html=1;" edge="1" parent="1" source="EMOaW1B3szaLbLaair1D-27" target="EMOaW1B3szaLbLaair1D-29">
          <mxGeometry relative="1" as="geometry" />
        </mxCell>
        <mxCell id="EMOaW1B3szaLbLaair1D-32" value="" style="edgeStyle=orthogonalEdgeStyle;rounded=0;orthogonalLoop=1;jettySize=auto;html=1;" edge="1" parent="1" source="EMOaW1B3szaLbLaair1D-27" target="EMOaW1B3szaLbLaair1D-31">
          <mxGeometry relative="1" as="geometry" />
        </mxCell>
        <mxCell id="EMOaW1B3szaLbLaair1D-34" value="" style="edgeStyle=orthogonalEdgeStyle;rounded=0;orthogonalLoop=1;jettySize=auto;html=1;" edge="1" parent="1" source="EMOaW1B3szaLbLaair1D-27" target="EMOaW1B3szaLbLaair1D-33">
          <mxGeometry relative="1" as="geometry" />
        </mxCell>
        <mxCell id="EMOaW1B3szaLbLaair1D-27" value="Các game học tập&lt;br&gt;(ý tưởng)" style="whiteSpace=wrap;html=1;fillColor=#fff2cc;strokeColor=#d6b656;rounded=1;arcSize=14;strokeWidth=2;" vertex="1" parent="1">
          <mxGeometry x="51" y="719" width="120" height="60" as="geometry" />
        </mxCell>
        <mxCell id="EMOaW1B3szaLbLaair1D-29" value="Trắc nghiệm hóa học" style="whiteSpace=wrap;html=1;fillColor=#fff2cc;strokeColor=#d6b656;rounded=1;arcSize=14;strokeWidth=2;" vertex="1" parent="1">
          <mxGeometry x="51" y="859" width="120" height="60" as="geometry" />
        </mxCell>
        <mxCell id="EMOaW1B3szaLbLaair1D-31" value="Nhận biết các chất" style="whiteSpace=wrap;html=1;fillColor=#fff2cc;strokeColor=#d6b656;rounded=1;arcSize=14;strokeWidth=2;" vertex="1" parent="1">
          <mxGeometry x="-149" y="719" width="120" height="60" as="geometry" />
        </mxCell>
        <mxCell id="EMOaW1B3szaLbLaair1D-33" value="Cân bằng phương trình" style="whiteSpace=wrap;html=1;fillColor=#fff2cc;strokeColor=#d6b656;rounded=1;arcSize=14;strokeWidth=2;" vertex="1" parent="1">
          <mxGeometry x="51" y="579" width="120" height="60" as="geometry" />
        </mxCell>
        <mxCell id="EMOaW1B3szaLbLaair1D-36" value="Trả về:{&lt;br&gt;điểm,&lt;br&gt;thời gian,&lt;br&gt;các lỗi sai&lt;br&gt;}" style="whiteSpace=wrap;html=1;fillColor=#fff2cc;strokeColor=#d6b656;rounded=1;arcSize=14;strokeWidth=2;" vertex="1" parent="1">
          <mxGeometry x="230" y="910" width="142" height="79" as="geometry" />
        </mxCell>
        <mxCell id="EMOaW1B3szaLbLaair1D-43" value="" style="edgeStyle=orthogonalEdgeStyle;rounded=0;orthogonalLoop=1;jettySize=auto;html=1;" edge="1" parent="1" source="EMOaW1B3szaLbLaair1D-40" target="EMOaW1B3szaLbLaair1D-42">
          <mxGeometry relative="1" as="geometry" />
        </mxCell>
        <mxCell id="EMOaW1B3szaLbLaair1D-40" value="Bảng xếp hạng" style="whiteSpace=wrap;html=1;fillColor=#fff2cc;strokeColor=#d6b656;rounded=1;arcSize=14;strokeWidth=2;" vertex="1" parent="1">
          <mxGeometry x="498" y="713.5" width="120" height="60" as="geometry" />
        </mxCell>
        <mxCell id="EMOaW1B3szaLbLaair1D-42" value="So sánh dựa vào điểm vào thời gian" style="whiteSpace=wrap;html=1;fillColor=#fff2cc;strokeColor=#d6b656;rounded=1;arcSize=14;strokeWidth=2;" vertex="1" parent="1">
          <mxGeometry x="498" y="853.5" width="120" height="60" as="geometry" />
        </mxCell>
        <mxCell id="EMOaW1B3szaLbLaair1D-47" value="" style="edgeStyle=orthogonalEdgeStyle;rounded=0;orthogonalLoop=1;jettySize=auto;html=1;" edge="1" parent="1" source="EMOaW1B3szaLbLaair1D-44" target="EMOaW1B3szaLbLaair1D-46">
          <mxGeometry relative="1" as="geometry" />
        </mxCell>
        <mxCell id="EMOaW1B3szaLbLaair1D-49" value="" style="edgeStyle=orthogonalEdgeStyle;rounded=0;orthogonalLoop=1;jettySize=auto;html=1;" edge="1" parent="1" source="EMOaW1B3szaLbLaair1D-44" target="EMOaW1B3szaLbLaair1D-48">
          <mxGeometry relative="1" as="geometry" />
        </mxCell>
        <mxCell id="EMOaW1B3szaLbLaair1D-44" value="Trang blog (nếu còn thời gian)" style="whiteSpace=wrap;html=1;fillColor=#fff2cc;strokeColor=#d6b656;rounded=1;arcSize=14;strokeWidth=2;" vertex="1" parent="1">
          <mxGeometry x="470" y="139" width="120" height="60" as="geometry" />
        </mxCell>
        <mxCell id="EMOaW1B3szaLbLaair1D-46" value="Các bài viết về hóa học" style="whiteSpace=wrap;html=1;fillColor=#fff2cc;strokeColor=#d6b656;rounded=1;arcSize=14;strokeWidth=2;" vertex="1" parent="1">
          <mxGeometry x="470" y="-1" width="120" height="60" as="geometry" />
        </mxCell>
        <mxCell id="EMOaW1B3szaLbLaair1D-48" value="Video phản ứng hóa học&amp;nbsp; thú vị" style="whiteSpace=wrap;html=1;fillColor=#fff2cc;strokeColor=#d6b656;rounded=1;arcSize=14;strokeWidth=2;" vertex="1" parent="1">
          <mxGeometry x="270" y="139" width="120" height="60" as="geometry" />
        </mxCell>
      </root>
    </mxGraphModel>
  </diagram>
</mxfile>
